<svg width="2351" height="1061" viewBox="0 0 2351 1061" fill="none" xmlns="http://www.w3.org/2000/svg">
<g clip-path="url(#clip0_4142_30)">
<path d="M1468.86 651.691C1491.4 651.691 1509.68 633.415 1509.68 610.87C1509.68 588.325 1491.4 570.049 1468.86 570.049C1446.31 570.049 1428.04 588.325 1428.04 610.87C1428.04 633.415 1446.31 651.691 1468.86 651.691Z" fill="#0A1128"/>
<path d="M1244.27 529.828C1259.99 529.828 1272.74 517.082 1272.74 501.36C1272.74 485.637 1259.99 472.892 1244.27 472.892C1228.55 472.892 1215.8 485.637 1215.8 501.36C1215.8 517.082 1228.55 529.828 1244.27 529.828Z" fill="#0A1128"/>
<path d="M1368.61 460.538C1384.33 460.538 1397.08 447.792 1397.08 432.07C1397.08 416.347 1384.33 403.602 1368.61 403.602C1352.89 403.602 1340.14 416.347 1340.14 432.07C1340.14 447.792 1352.89 460.538 1368.61 460.538Z" fill="#0A1128"/>
<path d="M1464.52 403.603C1477.85 403.603 1488.66 392.797 1488.66 379.466C1488.66 366.135 1477.85 355.328 1464.52 355.328C1451.19 355.328 1440.39 366.135 1440.39 379.466C1440.39 392.797 1451.19 403.603 1464.52 403.603Z" fill="#0A1128"/>
<path d="M1355.62 318.838C1365.87 318.838 1374.19 310.527 1374.19 300.274C1374.19 290.021 1365.87 281.709 1355.62 281.709C1345.37 281.709 1337.06 290.021 1337.06 300.274C1337.06 310.527 1345.37 318.838 1355.62 318.838Z" fill="#0A1128"/>
<path d="M1462.04 287.28C1470.59 287.28 1477.52 280.351 1477.52 271.804C1477.52 263.256 1470.59 256.327 1462.04 256.327C1453.49 256.327 1446.57 263.256 1446.57 271.804C1446.57 280.351 1453.49 287.28 1462.04 287.28Z" fill="#0A1128"/>
<path d="M1268.37 404.205C1281.71 404.205 1292.51 393.398 1292.51 380.067C1292.51 366.736 1281.71 355.93 1268.37 355.93C1255.04 355.93 1244.24 366.736 1244.24 380.067C1244.24 393.398 1255.04 404.205 1268.37 404.205Z" fill="#0A1128"/>
<path d="M1272.74 641.784C1295.28 641.784 1313.56 623.507 1313.56 600.963C1313.56 578.418 1295.28 560.142 1272.74 560.142C1250.19 560.142 1231.92 578.418 1231.92 600.963C1231.92 623.507 1250.19 641.784 1272.74 641.784Z" fill="#0A1128"/>
<path d="M1657.55 641.784C1680.1 641.784 1698.37 623.507 1698.37 600.963C1698.37 578.418 1680.1 560.142 1657.55 560.142C1635.01 560.142 1616.73 578.418 1616.73 600.963C1616.73 623.507 1635.01 641.784 1657.55 641.784Z" fill="#0A1128"/>
<path d="M1358.1 730.242C1380.65 730.242 1398.92 711.965 1398.92 689.421C1398.92 666.876 1380.65 648.6 1358.1 648.6C1335.56 648.6 1317.28 666.876 1317.28 689.421C1317.28 711.965 1335.56 730.242 1358.1 730.242Z" fill="#0A1128"/>
<path d="M1576.51 730.242C1599.06 730.242 1617.33 711.965 1617.33 689.421C1617.33 666.876 1599.06 648.6 1576.51 648.6C1553.97 648.6 1535.69 666.876 1535.69 689.421C1535.69 711.965 1553.97 730.242 1576.51 730.242Z" fill="#0A1128"/>
<path d="M1562.89 590.417C1585.43 590.417 1603.71 572.141 1603.71 549.596C1603.71 527.052 1585.43 508.775 1562.89 508.775C1540.34 508.775 1522.06 527.052 1522.06 549.596C1522.06 572.141 1540.34 590.417 1562.89 590.417Z" fill="#0A1128"/>
<path d="M1562.89 472.89C1585.43 472.89 1603.71 454.614 1603.71 432.069C1603.71 409.524 1585.43 391.248 1562.89 391.248C1540.34 391.248 1522.06 409.524 1522.06 432.069C1522.06 454.614 1540.34 472.89 1562.89 472.89Z" fill="#0A1128"/>
<path d="M1684.78 529.789C1707.33 529.789 1725.6 511.513 1725.6 488.968C1725.6 466.424 1707.33 448.147 1684.78 448.147C1662.24 448.147 1643.96 466.424 1643.96 488.968C1643.96 511.513 1662.24 529.789 1684.78 529.789Z" fill="#0A1128"/>
<path d="M1657.55 423.375C1680.1 423.375 1698.37 405.099 1698.37 382.554C1698.37 360.01 1680.1 341.733 1657.55 341.733C1635.01 341.733 1616.73 360.01 1616.73 382.554C1616.73 405.099 1635.01 423.375 1657.55 423.375Z" fill="#0A1128"/>
<path d="M1576.51 341.096C1599.06 341.096 1617.33 322.82 1617.33 300.275C1617.33 277.73 1599.06 259.454 1576.51 259.454C1553.97 259.454 1535.69 277.73 1535.69 300.275C1535.69 322.82 1553.97 341.096 1576.51 341.096Z" fill="#0A1128"/>
<path d="M1368.61 590.417C1391.15 590.417 1409.43 572.141 1409.43 549.596C1409.43 527.052 1391.15 508.775 1368.61 508.775C1346.07 508.775 1327.79 527.052 1327.79 549.596C1327.79 572.141 1346.07 590.417 1368.61 590.417Z" fill="#0A1128"/>
<path d="M1468.86 761.195C1491.4 761.195 1509.68 742.919 1509.68 720.374C1509.68 697.829 1491.4 679.553 1468.86 679.553C1446.31 679.553 1428.04 697.829 1428.04 720.374C1428.04 742.919 1446.31 761.195 1468.86 761.195Z" fill="#0A1128"/>
<path d="M1468.86 542.18C1491.4 542.18 1509.68 523.904 1509.68 501.359C1509.68 478.814 1491.4 460.538 1468.86 460.538C1446.31 460.538 1428.04 478.814 1428.04 501.359C1428.04 523.904 1446.31 542.18 1468.86 542.18Z" fill="#0A1128"/>
<path d="M153.345 637.769V577.765C153.345 568.875 151.863 563.196 148.9 560.726C145.937 557.763 140.011 556.281 131.121 556.281H93.3404C47.411 556.281 24.4463 534.551 24.4463 491.091V414.789C24.4463 370.835 47.411 348.858 93.3404 348.858H147.419C193.842 348.858 217.053 370.835 217.053 414.789V449.607H151.863V421.457C151.863 412.567 150.382 406.888 147.419 404.418C144.455 401.455 138.529 399.973 129.639 399.973H111.86C102.971 399.973 97.0444 401.455 94.0812 404.418C91.118 406.888 89.6364 412.567 89.6364 421.457V483.683C89.6364 492.573 91.118 498.499 94.0812 501.463C97.0444 503.932 102.971 505.167 111.86 505.167H150.382C195.817 505.167 218.535 527.143 218.535 571.097V645.177C218.535 688.637 195.57 710.367 149.641 710.367H94.822C48.8926 710.367 25.9279 688.637 25.9279 645.177V609.619H91.118V637.769C91.118 646.659 92.5996 652.585 95.5628 655.548C98.5259 658.018 104.452 659.252 113.342 659.252H131.121C140.011 659.252 145.937 658.018 148.9 655.548C151.863 652.585 153.345 646.659 153.345 637.769ZM505.316 348.858L422.347 521.464L505.316 710.367H434.199L354.193 521.464L434.199 348.858H505.316ZM275.669 710.367V214.774H342.341V710.367H275.669ZM593.783 812.597H549.335V759.26H579.708C600.944 759.26 613.785 751.111 618.229 734.813L625.637 704.441H589.338L513.777 348.858H581.93L636.749 651.844L687.864 348.858H755.277L678.975 745.185C668.11 790.126 639.713 812.597 593.783 812.597ZM1096.63 348.858H1159.6L1092.93 710.367H1004.77L961.809 437.013L918.842 710.367H830.688L764.757 348.858H827.724L875.876 653.326L922.546 348.858H1001.81L1047 653.326L1096.63 348.858Z" fill="#0A1128"/>
<path d="M1932.61 348.118H1947.43V405.9H1920.76C1889.65 405.9 1874.09 424.173 1874.09 460.719V710.367H1807.42V348.858H1874.09V393.306C1878.04 380.466 1884.95 369.848 1894.83 361.452C1905.2 352.562 1917.8 348.118 1932.61 348.118ZM2050.61 710.367H1983.94V214.774H2050.61V710.367ZM2250.43 214.774H2317.1V710.367H2250.43V681.476C2244 700.737 2228.7 710.367 2204.5 710.367H2177.83C2133.38 710.367 2111.16 688.637 2111.16 645.177V414.049C2111.16 370.095 2133.38 348.118 2177.83 348.118H2204.5C2228.7 348.118 2244 357.748 2250.43 377.009V214.774ZM2200.05 656.289H2225.98C2234.87 656.289 2241.04 654.314 2244.5 650.363C2248.45 646.412 2250.43 639.745 2250.43 630.361V428.124C2250.43 418.74 2248.45 412.073 2244.5 408.122C2241.04 404.171 2234.87 402.196 2225.98 402.196H2200.05C2191.16 402.196 2185.24 403.677 2182.27 406.641C2179.31 409.604 2177.83 415.283 2177.83 423.679V634.806C2177.83 643.695 2179.31 649.622 2182.27 652.585C2185.24 655.054 2191.16 656.289 2200.05 656.289Z" fill="#0A1128"/>
</g>
<defs>
<clipPath id="clip0_4142_30">
<rect width="2351" height="1059.75" fill="white" transform="translate(0 0.367188)"/>
</clipPath>
</defs>
</svg>
